<?xml version="1.0"?>
<svg version="1.1" xmlns="http://www.w3.org/2000/svg" width="350" height="120" style="border: dashed 2px #aaa"><path fill="#360033" d="M17.0849609375,91.30859375q0.068359375-1.435546875,0.068359375-2.802734375q0-4.9560546875,0.35888671875-9.8779296875t0.49560546875-9.8779296875q0.205078125-5.673828125,0.3759765625-11.2451171875t0.68359375-11.2109375q0.13671875-1.4013671875,0.80322265625-1.82861328125t1.99951171875-0.42724609375q0.615234375,0,1.640625,0.2392578125t1.025390625,1.162109375q0.478515625,0.068359375,0.95703125,0.068359375q0.7177734375,0,1.4697265625-0.13671875q1.23046875-0.205078125,2.51220703125-0.46142578125t2.54638671875-0.49560546875t2.4267578125-0.2392578125q0.2734375,0,0.76904296875,0.0341796875t0.9912109375,0.205078125t0.83740234375,0.42724609375t0.341796875,0.66650390625t-0.80322265625,0.73486328125t-2.10205078125,0.56396484375t-2.802734375,0.41015625t-2.939453125,0.29052734375t-2.54638671875,0.18798828125t-1.58935546875,0.068359375l-0.068359375,12.8515625l0.068359375,6.3916015625q1.0595703125,0,3.1787109375-0.068359375q0.8544921875-0.0341796875,1.708984375-0.0341796875q1.298828125,0,2.666015625,0.068359375q2.255859375,0.1025390625,4.0673828125,0.41015625t2.2900390625,1.09375q0,0.478515625-0.49560546875,0.76904296875t-1.11083984375,0.42724609375t-1.24755859375,0.1708984375t-0.90576171875,0.0341796875q-2.529296875,0-5.0927734375-0.1025390625t-5.05859375-0.41015625q0,4.2041015625-0.22216796875,8.33984375t-0.22216796875,8.33984375q0,1.8115234375,0.0341796875,3.57177734375t0.41015625,3.50341796875q0.9228515625-0.068359375,1.99951171875-0.1708984375t2.1875-0.25634765625t2.13623046875-0.25634765625t1.77734375-0.1025390625q0.41015625,0,1.11083984375,0.1025390625t1.435546875,0.341796875t1.2646484375,0.59814453125t0.52978515625,0.83740234375q0,0.546875-1.00830078125,0.97412109375t-2.58056640625,0.68359375t-3.43505859375,0.35888671875t-3.60595703125,0.13671875t-3.14453125,0.0341796875l-1.982421875,0q-1.8798828125,0-2.75146484375-0.70068359375t-1.21337890625-1.82861328125q-0.2734375-0.9228515625-0.2392578125-2.0849609375l0-0.478515625z M60.23134765625,78.18359375q0-0.68359375,1.86279296875-1.025390625t4.375-0.49560546875t5.21240234375-0.11962890625t4.375,0.0341796875q0.8544921875,0,1.99951171875,0.32470703125t1.14501953125,1.07666015625q0,0.615234375-0.546875,0.90576171875t-1.28173828125,0.42724609375t-1.435546875,0.13671875l-0.90576171875,0q-2.392578125,0-4.49462890625-0.1025390625t-4.35791015625-0.1025390625q-0.68359375,0-1.38427734375,0.068359375t-1.31591796875,0.068359375l-0.97412109375,0t-1.0595703125-0.1025390625t-0.8544921875-0.341796875t-0.35888671875-0.751953125z M101.00224609375,46.75537109375q-0.08544921875-1.04248046875,0.13671875-1.8115234375t0.888671875-1.2646484375t2.13623046875-0.49560546875l5.5029296875,0q1.1279296875,0,2.95654296875,0.11962890625t3.9306640625,0.35888671875t4.18701171875,0.73486328125t3.81103515625,1.23046875t2.802734375,1.8115234375t1.07666015625,2.54638671875q0,2.0849609375-1.21337890625,3.91357421875t-3.0419921875,3.29833984375t-3.8623046875,2.61474609375t-3.64013671875,2.06787109375q6.357421875,1.4013671875,9.9462890625,5.810546875t3.5888671875,11.005859375q0,3.486328125-1.3330078125,6.88720703125t-3.64013671875,6.13525390625t-5.46875,4.4091796875t-6.78466796875,1.6748046875q-0.478515625,0-1.07666015625-0.1025390625t-1.09375-0.32470703125t-0.8544921875-0.63232421875t-0.35888671875-1.0595703125q0-3.0078125,3.2470703125-3.0078125q0.546875,0,1.28173828125,0.15380859375t1.14501953125,0.63232421875q1.8798828125-0.7861328125,3.43505859375-2.4951171875t2.6318359375-3.81103515625t1.6748046875-4.4091796875t0.59814453125-4.18701171875q0-2.255859375-0.66650390625-4.59716796875t-1.93115234375-4.3408203125t-3.1103515625-3.36669921875t-4.23828125-1.708984375q-0.615234375-0.068359375-1.35009765625-0.1025390625l-1.4697265625-0.068359375t-1.435546875-0.205078125t-1.21337890625-0.546875q0.2734375,5.673828125,0.70068359375,11.3134765625t1.14501953125,11.3134765625q0.2734375,0.2734375,0.3759765625,0.80322265625t0.1708984375,1.1279296875t0.068359375,1.14501953125l0,0.9228515625q0,0.615234375-0.41015625,1.00830078125t-0.97412109375,0.63232421875t-1.1962890625,0.3076171875t-1.11083984375,0.068359375q-1.5380859375,0-2.3583984375-0.41015625t-1.162109375-1.1962890625t-0.4443359375-1.79443359375t-0.1708984375-2.20458984375q-0.9228515625-9.5361328125-1.3330078125-18.8671875t-0.41015625-18.8671875q0-1.1279296875-0.08544921875-2.17041015625z M107.3083984375,45.302734375q0,4.2041015625,0.2734375,8.42529296875t0.478515625,8.42529296875q1.5380859375-0.9228515625,4.033203125-2.17041015625t4.83642578125-2.75146484375t4.01611328125-3.3154296875t1.6748046875-3.9306640625q0-1.6748046875-1.982421875-2.54638671875t-4.6142578125-1.298828125t-5.14404296875-0.52978515625t-3.57177734375-0.3076171875z M135.76879882812,79.2431640625q0-0.68359375,0.15380859375-1.8115234375t0.35888671875-2.23876953125t0.478515625-2.06787109375t0.6494140625-1.23046875q0.2734375-0.2734375,0.93994140625-0.546875t1.4013671875-0.39306640625t1.3671875,0.1025390625t0.76904296875,0.90576171875q-0.478515625,0.615234375-0.87158203125,2.10205078125t-0.59814453125,3.29833984375q-0.1708984375,1.5380859375-0.1708984375,3.1787109375l0,0.5810546875q0.0341796875,1.9140625,0.341796875,3.5205078125t0.93994140625,2.64892578125t1.76025390625,1.04248046875q2.392578125,0,4.375-2.20458984375t3.5205078125-5.38330078125t2.7001953125-6.75048828125t1.982421875-6.23779296875q0.205078125-0.7861328125,0.97412109375-1.0595703125t1.65771484375-0.18798828125t1.58935546875,0.42724609375t0.83740234375,0.8203125q-0.68359375,5.7421875-1.07666015625,11.484375t-0.39306640625,11.552734375q0,1.1279296875,0.1025390625,2.06787109375t-0.1025390625,1.6064453125t-0.90576171875,1.0595703125t-2.23876953125,0.39306640625q-0.341796875,0-0.87158203125-0.068359375t-1.09375-0.22216796875t-0.95703125-0.46142578125t-0.39306640625-0.7177734375q0-2.529296875,0.18798828125-5.1953125t0.52978515625-5.1611328125q-0.9228515625,1.3330078125-2.03369140625,2.64892578125t-2.44384765625,2.37548828125t-2.87109375,1.69189453125t-3.3154296875,0.63232421875q-2.529296875,0-3.98193359375-1.1962890625t-2.1875-2.99072265625t-0.9228515625-3.91357421875t-0.18798828125-4.1015625z M167.92060546875,74.62890625q0-0.9912109375,0.56396484375-1.298828125t1.41845703125-0.3076171875q1.4013671875,0,2.13623046875,0.52978515625t0.73486328125,1.86279296875q0,1.6064453125,0.2392578125,4.01611328125t0.70068359375,4.6826171875t1.09375,3.91357421875t1.31591796875,1.640625q1.2646484375,0,2.23876953125-1.9482421875t1.708984375-4.78515625t1.2646484375-6.10107421875t0.73486328125-5.82763671875q0.13671875-1.4013671875,0.66650390625-2.03369140625t1.93115234375-0.63232421875q1.6064453125,0,2.34130859375,1.3330078125t0.93994140625,3.28125q0.1708984375,1.6748046875,0.1708984375,3.486328125l0,0.5810546875l0,1.3671875q0,1.298828125,0.0341796875,2.32421875l0.9912109375,20.9521484375l0.13671875,3.486328125q0.068359375,0.478515625,0.1025390625,0.90576171875t0.0341796875,0.90576171875q0,1.9482421875-0.83740234375,2.51220703125t-2.71728515625,0.56396484375q-0.41015625,0-1.04248046875-0.068359375t-1.23046875-0.2734375t-1.025390625-0.56396484375t-0.42724609375-0.90576171875l0.13671875-0.341796875q0.1708984375-2.05078125,0.1708984375-4.306640625l0-0.7177734375q-0.0341796875-2.666015625-0.1708984375-5.400390625t-0.3076171875-5.46875t-0.1708984375-5.263671875q-0.478515625,1.0595703125-1.11083984375,2.1875t-1.4697265625,2.03369140625t-1.89697265625,1.50390625t-2.392578125,0.59814453125q-1.9482421875,0-3.212890625-1.025390625t-1.96533203125-2.666015625t-1.00830078125-3.67431640625t-0.41015625-4.0673828125t-0.13671875-3.87939453125t-0.2734375-3.1103515625z"/><path fill="#0b8793" d="M200.04506835938,69.7734375q0-0.41015625,0.28125-0.521484375t0.609375-0.111328125q0.57421875,0,0.97265625,0.515625t0.755859375,1.130859375t0.708984375,1.130859375t0.83203125,0.515625q0.36328125,0,0.662109375-0.181640625t0.515625-0.45703125t0.333984375-0.62109375t0.1171875-0.685546875q0-0.890625-0.357421875-1.83984375t-0.9140625-1.95703125t-1.177734375-2.0625t-1.171875-2.14453125t-0.9140625-2.220703125t-0.36328125-2.279296875q0-1.72265625,1.03125-2.671875t2.71875-0.94921875q0.57421875,0,1.16015625,0.1640625t1.078125,0.4921875t0.802734375,0.80859375t0.310546875,1.125q0,0.2109375-0.310546875,0.275390625t-0.451171875,0.064453125q-0.2109375,0-0.45703125-0.052734375t-0.31640625-0.287109375t-0.19921875-0.5390625t-0.322265625-0.568359375t-0.45703125-0.45703125t-0.580078125-0.193359375q-0.52734375,0-0.896484375,0.216796875t-0.59765625,0.580078125t-0.33984375,0.814453125t-0.111328125,0.931640625q0,1.125,0.38671875,2.267578125t0.9609375,2.2734375t1.248046875,2.232421875t1.248046875,2.14453125t0.9609375,2.0390625t0.38671875,1.88671875q0,0.796875-0.375,1.34765625t-0.94921875,0.896484375t-1.271484375,0.50390625t-1.365234375,0.158203125q-0.71484375,0-1.46484375-0.287109375t-1.34765625-0.791015625t-0.984375-1.177734375t-0.38671875-1.458984375z M210.58807617188,68.90625l0-1.1015625q0-0.59765625,0.029296875-1.693359375t0.076171875-2.40234375t0.12890625-2.724609375t0.1875-2.677734375t0.251953125-2.255859375t0.333984375-1.4765625q0.1171875-0.26953125,0.38671875-0.33984375t0.52734375-0.0703125q0.41015625,0,0.720703125,0.181640625t0.310546875,0.662109375l-0.2109375,0.234375q-0.41015625,2.70703125-0.52734375,5.4375t-0.1640625,5.4609375q0.29296875-0.45703125,0.662109375-0.896484375t0.8203125-0.779296875t0.97265625-0.544921875t1.142578125-0.205078125q0.796875,0,1.318359375,0.48046875t0.861328125,1.248046875t0.50390625,1.716796875t0.251953125,1.8984375t0.123046875,1.798828125t0.10546875,1.412109375q-0.22265625,0.3046875-0.65625,0.3046875l-0.03515625,0q-0.1875,0-0.41015625-0.046875t-0.29296875-0.234375l0.0234375,0.0234375q-0.1640625-0.36328125-0.22265625-1.048828125t-0.09375-1.51171875t-0.123046875-1.693359375t-0.263671875-1.5703125t-0.515625-1.16015625t-0.9140625-0.48046875l-0.0703125,0q-0.69140625,0-1.16015625,0.421875q-0.4921875,0.4453125-0.796875,1.171875t-0.46875,1.6171875t-0.251953125,1.716796875t-0.134765625,1.5t-0.1171875,0.990234375q-0.0703125,0.26953125-0.416015625,0.357421875t-0.591796875,0.087890625q-0.57421875,0-0.9375-0.328125q-0.26953125-0.64453125-0.31640625-1.60546875t-0.046875-1.875z M221.56467773438,67.8515625q0-0.66796875,0.169921875-1.376953125t0.5390625-1.27734375t0.931640625-0.92578125t1.359375-0.357421875q0.59765625,0,1.259765625,0.205078125t1.212890625,0.5859375t0.896484375,0.931640625t0.345703125,1.23046875q0,0.8203125-0.298828125,1.55859375t-0.837890625,1.318359375t-1.259765625,0.9140625t-1.564453125,0.333984375q-0.69140625,0-1.20703125-0.251953125t-0.861328125-0.673828125t-0.515625-0.99609375t-0.169921875-1.21875z M223.28733398438,67.828125q0,0.2109375,0.064453125,0.62109375t0.193359375,0.802734375t0.333984375,0.6796875t0.498046875,0.263671875q0.62109375-0.0703125,1.025390625-0.404296875t0.65625-0.814453125t0.3515625-1.04296875t0.099609375-1.06640625q0-0.64453125-0.251953125-1.078125t-0.826171875-0.703125q0,0.0234375,0.0234375,0.0234375t0.0234375-0.0234375l-0.29296875-0.0703125q-0.1171875-0.046875-0.287109375-0.10546875t-0.333984375-0.2578125q-0.45703125,0.1640625-0.708984375,0.421875t-0.380859375,0.626953125t-0.158203125,0.884765625t-0.029296875,1.2421875z M230.44362304688,63.38671875q0-0.55078125,0.216796875-0.814453125t0.791015625-0.263671875q0.33984375,0,0.638671875,0.140625t0.298828125,0.59765625q0.046875,0.66796875,0.046875,1.400390625t0.12890625,1.388671875q0.29296875-0.48046875,0.662109375-0.9609375t0.814453125-0.85546875t0.97265625-0.603515625t1.1484375-0.228515625q0.84375,0,1.4296875,0.3515625t0.966796875,0.9140625t0.55078125,1.271484375t0.169921875,1.423828125q0,1.1015625-0.333984375,1.798828125t-0.884765625,1.095703125t-1.248046875,0.5390625t-1.400390625,0.140625q-0.62109375,0-1.16015625-0.240234375t-0.75-0.908203125q0-0.1875,0.275390625-0.234375t0.392578125-0.046875q0.38671875,0,0.57421875,0.2109375q0.140625,0.1640625,0.310546875,0.333984375t0.357421875,0.169921875q0.36328125,0,0.76171875-0.205078125t0.732421875-0.5390625t0.5625-0.791015625t0.228515625-0.9375q0-0.41015625-0.0703125-1.01953125t-0.240234375-1.171875t-0.46875-0.97265625t-0.755859375-0.41015625q-0.69140625,0-1.248046875,0.6328125t-0.92578125,1.5234375t-0.57421875,1.8515625t-0.205078125,1.60546875t0.08203125,1.62890625t0.169921875,2.044921875t0.169921875,2.044921875t0.08203125,1.62890625q0,0.1640625-0.134765625,0.263671875t-0.322265625,0.158203125t-0.380859375,0.0703125t-0.287109375,0.01171875q-0.31640625,0-0.662109375-0.0703125t-0.474609375-0.43359375q-0.1640625-0.57421875-0.3046875-1.634765625t-0.251953125-2.34375t-0.193359375-2.6953125t-0.140625-2.724609375t-0.087890625-2.40234375t-0.029296875-1.734375z M246.24448242188,64.21875q0-0.8203125,0.076171875-2.1328125t0.181640625-2.70703125t0.263671875-2.642578125t0.345703125-1.916015625q0.0703125-0.29296875,0.333984375-0.3515625t0.533203125-0.05859375q0.36328125,0,0.626953125,0.12890625t0.263671875,0.5625q0,2.1328125-0.263671875,4.271484375t-0.287109375,4.271484375q0.36328125-0.55078125,0.9375-0.826171875t1.21875-0.275390625q0.890625,0,1.53515625,0.36328125t1.04296875,0.9375t0.591796875,1.330078125t0.193359375,1.541015625q0,0.43359375-0.087890625,1.083984375t-0.263671875,1.37109375t-0.4453125,1.4296875t-0.638671875,1.271484375t-0.849609375,0.908203125t-1.0546875,0.345703125q-0.1171875,0-0.310546875-0.03515625t-0.38671875-0.10546875t-0.322265625-0.181640625t-0.12890625-0.275390625q0-0.1875,0.228515625-0.263671875t0.369140625-0.076171875q0.52734375-0.234375,0.9375-0.978515625t0.685546875-1.634765625t0.416015625-1.763671875t0.140625-1.423828125q0-0.31640625-0.09375-0.84375t-0.287109375-1.04296875t-0.52734375-0.890625t-0.791015625-0.375q-0.55078125,0-0.87890625,0.568359375t-0.515625,1.32421875t-0.251953125,1.55859375t-0.064453125,1.259765625q0,0.29296875,0.099609375,0.580078125t0.228515625,0.57421875t0.228515625,0.5859375t0.099609375,0.591796875q0,0.140625-0.123046875,0.234375t-0.287109375,0.15234375t-0.345703125,0.076171875t-0.275390625,0.017578125q-0.66796875,0-0.92578125-0.31640625t-0.4453125-0.890625q-0.41015625-1.30078125-0.568359375-2.642578125t-0.158203125-2.689453125z M256.23670898438,68.109375q0-0.8203125,0.181640625-1.93359375t0.615234375-2.109375t1.142578125-1.693359375t1.787109375-0.697265625q1.0078125,0,1.51171875,0.580078125t0.50390625,1.564453125q0,0.64453125-0.240234375,1.412109375t-0.685546875,1.453125t-1.0546875,1.142578125t-1.359375,0.45703125l-0.3046875-0.0234375q0,0.31640625,0.09375,0.849609375t0.275390625,1.060546875t0.46875,0.92578125t0.697265625,0.3984375q0.59765625,0,1.1484375-0.48046875t1.04296875-1.06640625t0.9140625-1.06640625t0.7734375-0.48046875q0.1875,0,0.38671875,0.05859375t0.22265625,0.328125q0,0.1640625-0.087890625,0.26953125t-0.158203125,0.234375q-0.36328125,0.62109375-0.791015625,1.18359375t-0.966796875,1.01953125t-1.177734375,0.720703125t-1.412109375,0.263671875q-1.0078125,0-1.67578125-0.357421875t-1.078125-0.9609375t-0.591796875-1.39453125t-0.181640625-1.658203125z M258.33436523438,67.21875l0.328125,0.29296875q0.234375,0.2109375,0.46875,0.09375t0.421875-0.427734375t0.345703125-0.767578125t0.28125-0.9375t0.181640625-0.9375t0.05859375-0.76171875l0-0.3984375t-0.03515625-0.421875t-0.123046875-0.333984375t-0.275390625-0.169921875q-0.05859375-0.01171875-0.10546875-0.01171875q-0.3984375,0-0.6796875,0.50390625q-0.3046875,0.5625-0.4921875,1.365234375t-0.26953125,1.646484375t-0.10546875,1.265625z M265.54924804688,60.1875q0-0.1640625,0.3515625-0.28125t0.796875-0.193359375t0.861328125-0.111328125t0.568359375-0.05859375q0-0.31640625,0.0234375-0.638671875t0.12890625-0.57421875t0.333984375-0.404296875t0.638671875-0.15234375q0.33984375,0,0.515625,0.08203125t0.375,0.33984375q0.046875,0.140625,0.046875,0.26953125l0,0.392578125t-0.0234375,0.404296875q0.43359375-0.046875,0.861328125-0.111328125t0.861328125-0.064453125q0.31640625,0,0.43359375,0.01171875t0.234375,0.28125q0.09375,0.26953125-0.228515625,0.41015625t-0.7734375,0.2109375t-0.896484375,0.10546875t-0.5390625,0.03515625q-0.140625,2.015625-0.287109375,3.99609375t-0.146484375,4.01953125q0,0.9140625,0.05859375,1.88671875t0.328125,1.83984375q0.0703125,0.26953125,0.234375,0.50390625t0.1640625,0.50390625q0,0.1640625-0.12890625,0.2578125t-0.310546875,0.158203125t-0.36328125,0.076171875t-0.298828125,0.01171875q-0.73828125,0-1.125-0.55078125t-0.556640625-1.318359375t-0.181640625-1.576171875t-0.01171875-1.3125q0-1.03125,0.041015625-2.109375t0.099609375-2.1328125t0.1640625-2.0625t0.24609375-1.875q-0.41015625,0.046875-0.802734375,0.10546875t-0.802734375,0.05859375q-0.09375,0-0.251953125-0.01171875t-0.298828125-0.05859375t-0.240234375-0.12890625t-0.099609375-0.234375z M274.02975585938,60.1875q0-0.1640625,0.3515625-0.28125t0.796875-0.193359375t0.861328125-0.111328125t0.568359375-0.05859375q0-0.31640625,0.0234375-0.638671875t0.12890625-0.57421875t0.333984375-0.404296875t0.638671875-0.15234375q0.33984375,0,0.515625,0.08203125t0.375,0.33984375q0.046875,0.140625,0.046875,0.26953125l0,0.392578125t-0.0234375,0.404296875q0.43359375-0.046875,0.861328125-0.111328125t0.861328125-0.064453125q0.31640625,0,0.43359375,0.01171875t0.234375,0.28125q0.09375,0.26953125-0.228515625,0.41015625t-0.7734375,0.2109375t-0.896484375,0.10546875t-0.5390625,0.03515625q-0.140625,2.015625-0.287109375,3.99609375t-0.146484375,4.01953125q0,0.9140625,0.05859375,1.88671875t0.328125,1.83984375q0.0703125,0.26953125,0.234375,0.50390625t0.1640625,0.50390625q0,0.1640625-0.12890625,0.2578125t-0.310546875,0.158203125t-0.36328125,0.076171875t-0.298828125,0.01171875q-0.73828125,0-1.125-0.55078125t-0.556640625-1.318359375t-0.181640625-1.576171875t-0.01171875-1.3125q0-1.03125,0.041015625-2.109375t0.099609375-2.1328125t0.1640625-2.0625t0.24609375-1.875q-0.41015625,0.046875-0.802734375,0.10546875t-0.802734375,0.05859375q-0.09375,0-0.251953125-0.01171875t-0.298828125-0.05859375t-0.240234375-0.12890625t-0.099609375-0.234375z M282.99073242188,68.109375q0-0.8203125,0.181640625-1.93359375t0.615234375-2.109375t1.142578125-1.693359375t1.787109375-0.697265625q1.0078125,0,1.51171875,0.580078125t0.50390625,1.564453125q0,0.64453125-0.240234375,1.412109375t-0.685546875,1.453125t-1.0546875,1.142578125t-1.359375,0.45703125l-0.3046875-0.0234375q0,0.31640625,0.09375,0.849609375t0.275390625,1.060546875t0.46875,0.92578125t0.697265625,0.3984375q0.59765625,0,1.1484375-0.48046875t1.04296875-1.06640625t0.9140625-1.06640625t0.7734375-0.48046875q0.1875,0,0.38671875,0.05859375t0.22265625,0.328125q0,0.1640625-0.087890625,0.26953125t-0.158203125,0.234375q-0.36328125,0.62109375-0.791015625,1.18359375t-0.966796875,1.01953125t-1.177734375,0.720703125t-1.412109375,0.263671875q-1.0078125,0-1.67578125-0.357421875t-1.078125-0.9609375t-0.591796875-1.39453125t-0.181640625-1.658203125z M285.08838867188,67.21875l0.328125,0.29296875q0.234375,0.2109375,0.46875,0.09375t0.421875-0.427734375t0.345703125-0.767578125t0.28125-0.9375t0.181640625-0.9375t0.05859375-0.76171875l0-0.3984375t-0.03515625-0.421875t-0.123046875-0.333984375t-0.275390625-0.169921875q-0.05859375-0.01171875-0.10546875-0.01171875q-0.3984375,0-0.6796875,0.50390625q-0.3046875,0.5625-0.4921875,1.365234375t-0.26953125,1.646484375t-0.10546875,1.265625z M292.78374023438,64.34765625q0-0.48046875,0.169921875-0.80859375t0.720703125-0.328125q0.2109375,0,0.52734375,0.064453125t0.36328125,0.322265625q0.1171875,0.69140625,0.12890625,1.5t0.08203125,1.5234375q0.26953125-0.52734375,0.69140625-1.13671875t0.9609375-1.125t1.171875-0.85546875t1.2890625-0.33984375q0.046875,0,0.17578125,0.03515625t0.240234375,0.099609375t0.134765625,0.146484375t-0.12890625,0.15234375q-0.046875,0.140625-0.19921875,0.169921875t-0.26953125,0.029296875q-0.0703125,0-0.22265625-0.05859375q-0.8671875,0.45703125-1.4765625,1.2421875t-0.99609375,1.740234375t-0.5625,2.015625t-0.17578125,2.068359375q0,0.50390625-0.228515625,0.609375t-0.732421875,0.10546875q-0.26953125,0-0.568359375-0.05859375t-0.416015625-0.375q-0.2109375-0.66796875-0.345703125-1.53515625t-0.205078125-1.787109375t-0.099609375-1.810546875t-0.029296875-1.60546875z"/></svg>
