<?xml version="1.0"?>
<svg version="1.1" xmlns="http://www.w3.org/2000/svg" width="350" height="110" style=""><path fill="#c1c710" d="M17.0849609375,86.30859375q0.068359375-1.435546875,0.068359375-2.802734375q0-4.9560546875,0.35888671875-9.8779296875t0.49560546875-9.8779296875q0.205078125-5.673828125,0.3759765625-11.2451171875t0.68359375-11.2109375q0.13671875-1.4013671875,0.80322265625-1.82861328125t1.99951171875-0.42724609375q0.615234375,0,1.640625,0.2392578125t1.025390625,1.162109375q0.478515625,0.068359375,0.95703125,0.068359375q0.7177734375,0,1.4697265625-0.13671875q1.23046875-0.205078125,2.51220703125-0.46142578125t2.54638671875-0.49560546875t2.4267578125-0.2392578125q0.2734375,0,0.76904296875,0.0341796875t0.9912109375,0.205078125t0.83740234375,0.42724609375t0.341796875,0.66650390625t-0.80322265625,0.73486328125t-2.10205078125,0.56396484375t-2.802734375,0.41015625t-2.939453125,0.29052734375t-2.54638671875,0.18798828125t-1.58935546875,0.068359375l-0.068359375,12.8515625l0.068359375,6.3916015625q1.0595703125,0,3.1787109375-0.068359375q0.8544921875-0.0341796875,1.708984375-0.0341796875q1.298828125,0,2.666015625,0.068359375q2.255859375,0.1025390625,4.0673828125,0.41015625t2.2900390625,1.09375q0,0.478515625-0.49560546875,0.76904296875t-1.11083984375,0.42724609375t-1.24755859375,0.1708984375t-0.90576171875,0.0341796875q-2.529296875,0-5.0927734375-0.1025390625t-5.05859375-0.41015625q0,4.2041015625-0.22216796875,8.33984375t-0.22216796875,8.33984375q0,1.8115234375,0.0341796875,3.57177734375t0.41015625,3.50341796875q0.9228515625-0.068359375,1.99951171875-0.1708984375t2.1875-0.25634765625t2.13623046875-0.25634765625t1.77734375-0.1025390625q0.41015625,0,1.11083984375,0.1025390625t1.435546875,0.341796875t1.2646484375,0.59814453125t0.52978515625,0.83740234375q0,0.546875-1.00830078125,0.97412109375t-2.58056640625,0.68359375t-3.43505859375,0.35888671875t-3.60595703125,0.13671875t-3.14453125,0.0341796875l-1.982421875,0q-1.8798828125,0-2.75146484375-0.70068359375t-1.21337890625-1.82861328125q-0.2734375-0.9228515625-0.2392578125-2.0849609375l0-0.478515625z M46.912548828125,73.18359375q0-0.68359375,1.86279296875-1.025390625t4.375-0.49560546875t5.21240234375-0.11962890625t4.375,0.0341796875q0.8544921875,0,1.99951171875,0.32470703125t1.14501953125,1.07666015625q0,0.615234375-0.546875,0.90576171875t-1.28173828125,0.42724609375t-1.435546875,0.13671875l-0.90576171875,0q-2.392578125,0-4.49462890625-0.1025390625t-4.35791015625-0.1025390625q-0.68359375,0-1.38427734375,0.068359375t-1.31591796875,0.068359375l-0.97412109375,0t-1.0595703125-0.1025390625t-0.8544921875-0.341796875t-0.35888671875-0.751953125z M74.3646484375,41.75537109375q-0.08544921875-1.04248046875,0.13671875-1.8115234375t0.888671875-1.2646484375t2.13623046875-0.49560546875l5.5029296875,0q1.1279296875,0,2.95654296875,0.11962890625t3.9306640625,0.35888671875t4.18701171875,0.73486328125t3.81103515625,1.23046875t2.802734375,1.8115234375t1.07666015625,2.54638671875q0,2.0849609375-1.21337890625,3.91357421875t-3.0419921875,3.29833984375t-3.8623046875,2.61474609375t-3.64013671875,2.06787109375q6.357421875,1.4013671875,9.9462890625,5.810546875t3.5888671875,11.005859375q0,3.486328125-1.3330078125,6.88720703125t-3.64013671875,6.13525390625t-5.46875,4.4091796875t-6.78466796875,1.6748046875q-0.478515625,0-1.07666015625-0.1025390625t-1.09375-0.32470703125t-0.8544921875-0.63232421875t-0.35888671875-1.0595703125q0-3.0078125,3.2470703125-3.0078125q0.546875,0,1.28173828125,0.15380859375t1.14501953125,0.63232421875q1.8798828125-0.7861328125,3.43505859375-2.4951171875t2.6318359375-3.81103515625t1.6748046875-4.4091796875t0.59814453125-4.18701171875q0-2.255859375-0.66650390625-4.59716796875t-1.93115234375-4.3408203125t-3.1103515625-3.36669921875t-4.23828125-1.708984375q-0.615234375-0.068359375-1.35009765625-0.1025390625l-1.4697265625-0.068359375t-1.435546875-0.205078125t-1.21337890625-0.546875q0.2734375,5.673828125,0.70068359375,11.3134765625t1.14501953125,11.3134765625q0.2734375,0.2734375,0.3759765625,0.80322265625t0.1708984375,1.1279296875t0.068359375,1.14501953125l0,0.9228515625q0,0.615234375-0.41015625,1.00830078125t-0.97412109375,0.63232421875t-1.1962890625,0.3076171875t-1.11083984375,0.068359375q-1.5380859375,0-2.3583984375-0.41015625t-1.162109375-1.1962890625t-0.4443359375-1.79443359375t-0.1708984375-2.20458984375q-0.9228515625-9.5361328125-1.3330078125-18.8671875t-0.41015625-18.8671875q0-1.1279296875-0.08544921875-2.17041015625z M80.67080078125,40.302734375q0,4.2041015625,0.2734375,8.42529296875t0.478515625,8.42529296875q1.5380859375-0.9228515625,4.033203125-2.17041015625t4.83642578125-2.75146484375t4.01611328125-3.3154296875t1.6748046875-3.9306640625q0-1.6748046875-1.982421875-2.54638671875t-4.6142578125-1.298828125t-5.14404296875-0.52978515625t-3.57177734375-0.3076171875z M109.13120117188,74.2431640625q0-0.68359375,0.15380859375-1.8115234375t0.35888671875-2.23876953125t0.478515625-2.06787109375t0.6494140625-1.23046875q0.2734375-0.2734375,0.93994140625-0.546875t1.4013671875-0.39306640625t1.3671875,0.1025390625t0.76904296875,0.90576171875q-0.478515625,0.615234375-0.87158203125,2.10205078125t-0.59814453125,3.29833984375q-0.1708984375,1.5380859375-0.1708984375,3.1787109375l0,0.5810546875q0.0341796875,1.9140625,0.341796875,3.5205078125t0.93994140625,2.64892578125t1.76025390625,1.04248046875q2.392578125,0,4.375-2.20458984375t3.5205078125-5.38330078125t2.7001953125-6.75048828125t1.982421875-6.23779296875q0.205078125-0.7861328125,0.97412109375-1.0595703125t1.65771484375-0.18798828125t1.58935546875,0.42724609375t0.83740234375,0.8203125q-0.68359375,5.7421875-1.07666015625,11.484375t-0.39306640625,11.552734375q0,1.1279296875,0.1025390625,2.06787109375t-0.1025390625,1.6064453125t-0.90576171875,1.0595703125t-2.23876953125,0.39306640625q-0.341796875,0-0.87158203125-0.068359375t-1.09375-0.22216796875t-0.95703125-0.46142578125t-0.39306640625-0.7177734375q0-2.529296875,0.18798828125-5.1953125t0.52978515625-5.1611328125q-0.9228515625,1.3330078125-2.03369140625,2.64892578125t-2.44384765625,2.37548828125t-2.87109375,1.69189453125t-3.3154296875,0.63232421875q-2.529296875,0-3.98193359375-1.1962890625t-2.1875-2.99072265625t-0.9228515625-3.91357421875t-0.18798828125-4.1015625z M141.2830078125,69.62890625q0-0.9912109375,0.56396484375-1.298828125t1.41845703125-0.3076171875q1.4013671875,0,2.13623046875,0.52978515625t0.73486328125,1.86279296875q0,1.6064453125,0.2392578125,4.01611328125t0.70068359375,4.6826171875t1.09375,3.91357421875t1.31591796875,1.640625q1.2646484375,0,2.23876953125-1.9482421875t1.708984375-4.78515625t1.2646484375-6.10107421875t0.73486328125-5.82763671875q0.13671875-1.4013671875,0.66650390625-2.03369140625t1.93115234375-0.63232421875q1.6064453125,0,2.34130859375,1.3330078125t0.93994140625,3.28125q0.1708984375,1.6748046875,0.1708984375,3.486328125l0,0.5810546875l0,1.3671875q0,1.298828125,0.0341796875,2.32421875l0.9912109375,20.9521484375l0.13671875,3.486328125q0.068359375,0.478515625,0.1025390625,0.90576171875t0.0341796875,0.90576171875q0,1.9482421875-0.83740234375,2.51220703125t-2.71728515625,0.56396484375q-0.41015625,0-1.04248046875-0.068359375t-1.23046875-0.2734375t-1.025390625-0.56396484375t-0.42724609375-0.90576171875l0.13671875-0.341796875q0.1708984375-2.05078125,0.1708984375-4.306640625l0-0.7177734375q-0.0341796875-2.666015625-0.1708984375-5.400390625t-0.3076171875-5.46875t-0.1708984375-5.263671875q-0.478515625,1.0595703125-1.11083984375,2.1875t-1.4697265625,2.03369140625t-1.89697265625,1.50390625t-2.392578125,0.59814453125q-1.9482421875,0-3.212890625-1.025390625t-1.96533203125-2.666015625t-1.00830078125-3.67431640625t-0.41015625-4.0673828125t-0.13671875-3.87939453125t-0.2734375-3.1103515625z"/><path fill="#080145" d="M173.25854492188,62.7373046875q0-0.32470703125,0.22265625-0.412841796875t0.482421875-0.088134765625q0.45458984375,0,0.77001953125,0.408203125t0.598388671875,0.895263671875t0.561279296875,0.895263671875t0.65869140625,0.408203125q0.28759765625,0,0.524169921875-0.143798828125t0.408203125-0.36181640625t0.264404296875-0.49169921875t0.0927734375-0.542724609375q0-0.705078125-0.282958984375-1.45654296875t-0.7236328125-1.54931640625t-0.932373046875-1.6328125t-0.927734375-1.69775390625t-0.7236328125-1.758056640625t-0.28759765625-1.804443359375q0-1.36376953125,0.81640625-2.115234375t2.15234375-0.75146484375q0.45458984375,0,0.91845703125,0.1298828125t0.853515625,0.3896484375t0.635498046875,0.64013671875t0.245849609375,0.890625q0,0.1669921875-0.245849609375,0.218017578125t-0.357177734375,0.051025390625q-0.1669921875,0-0.36181640625-0.041748046875t-0.25048828125-0.227294921875t-0.15771484375-0.4267578125t-0.255126953125-0.449951171875t-0.36181640625-0.36181640625t-0.459228515625-0.153076171875q-0.41748046875,0-0.709716796875,0.171630859375t-0.47314453125,0.459228515625t-0.26904296875,0.644775390625t-0.088134765625,0.737548828125q0,0.890625,0.30615234375,1.795166015625t0.7607421875,1.7998046875t0.988037109375,1.767333984375t0.988037109375,1.69775390625t0.7607421875,1.6142578125t0.30615234375,1.49365234375q0,0.630859375-0.296875,1.06689453125t-0.75146484375,0.709716796875t-1.006591796875,0.39892578125t-1.080810546875,0.125244140625q-0.56591796875,0-1.15966796875-0.227294921875t-1.06689453125-0.626220703125t-0.779296875-0.932373046875t-0.30615234375-1.155029296875z M181.60509277344,62.05078125l0-0.8720703125q0-0.47314453125,0.023193359375-1.340576171875t0.060302734375-1.90185546875t0.10205078125-2.156982421875t0.1484375-2.119873046875t0.199462890625-1.785888671875t0.264404296875-1.1689453125q0.0927734375-0.21337890625,0.30615234375-0.26904296875t0.41748046875-0.0556640625q0.32470703125,0,0.570556640625,0.143798828125t0.245849609375,0.524169921875l-0.1669921875,0.185546875q-0.32470703125,2.14306640625-0.41748046875,4.3046875t-0.1298828125,4.3232421875q0.23193359375-0.36181640625,0.524169921875-0.709716796875t0.6494140625-0.616943359375t0.77001953125-0.431396484375t0.904541015625-0.162353515625q0.630859375,0,1.043701171875,0.38037109375t0.681884765625,0.988037109375t0.39892578125,1.359130859375t0.199462890625,1.5029296875t0.097412109375,1.424072265625t0.08349609375,1.117919921875q-0.17626953125,0.2412109375-0.51953125,0.2412109375l-0.02783203125,0q-0.1484375,0-0.32470703125-0.037109375t-0.23193359375-0.185546875l0.0185546875,0.0185546875q-0.1298828125-0.28759765625-0.17626953125-0.830322265625t-0.07421875-1.19677734375t-0.097412109375-1.340576171875t-0.208740234375-1.2431640625t-0.408203125-0.91845703125t-0.7236328125-0.38037109375l-0.0556640625,0q-0.54736328125,0-0.91845703125,0.333984375q-0.3896484375,0.3525390625-0.630859375,0.927734375t-0.37109375,1.2802734375t-0.199462890625,1.359130859375t-0.106689453125,1.1875t-0.0927734375,0.783935546875q-0.0556640625,0.21337890625-0.329345703125,0.282958984375t-0.468505859375,0.069580078125q-0.45458984375,0-0.7421875-0.259765625q-0.21337890625-0.51025390625-0.25048828125-1.27099609375t-0.037109375-1.484375z M190.29490234375,61.2158203125q0-0.52880859375,0.134521484375-1.090087890625t0.4267578125-1.01123046875t0.737548828125-0.73291015625t1.076171875-0.282958984375q0.47314453125,0,0.997314453125,0.162353515625t0.960205078125,0.4638671875t0.709716796875,0.737548828125t0.273681640625,0.97412109375q0,0.6494140625-0.236572265625,1.23388671875t-0.663330078125,1.043701171875t-0.997314453125,0.7236328125t-1.238525390625,0.264404296875q-0.54736328125,0-0.95556640625-0.199462890625t-0.681884765625-0.533447265625t-0.408203125-0.78857421875t-0.134521484375-0.96484375z M191.658671875,61.197265625q0,0.1669921875,0.051025390625,0.49169921875t0.153076171875,0.635498046875t0.264404296875,0.5380859375t0.394287109375,0.208740234375q0.49169921875-0.0556640625,0.811767578125-0.320068359375t0.51953125-0.644775390625t0.2783203125-0.82568359375t0.078857421875-0.84423828125q0-0.51025390625-0.199462890625-0.853515625t-0.654052734375-0.556640625q0,0.0185546875,0.0185546875,0.0185546875t0.0185546875-0.0185546875l-0.23193359375-0.0556640625q-0.0927734375-0.037109375-0.227294921875-0.08349609375t-0.264404296875-0.2041015625q-0.36181640625,0.1298828125-0.561279296875,0.333984375t-0.301513671875,0.496337890625t-0.125244140625,0.700439453125t-0.023193359375,0.9833984375z M197.32406738281,57.68115234375q0-0.43603515625,0.171630859375-0.644775390625t0.626220703125-0.208740234375q0.26904296875,0,0.505615234375,0.111328125t0.236572265625,0.47314453125q0.037109375,0.52880859375,0.037109375,1.108642578125t0.10205078125,1.099365234375q0.23193359375-0.38037109375,0.524169921875-0.7607421875t0.644775390625-0.67724609375t0.77001953125-0.477783203125t0.9091796875-0.180908203125q0.66796875,0,1.1318359375,0.2783203125t0.765380859375,0.7236328125t0.43603515625,1.006591796875t0.134521484375,1.127197265625q0,0.8720703125-0.264404296875,1.424072265625t-0.700439453125,0.867431640625t-0.988037109375,0.4267578125t-1.108642578125,0.111328125q-0.49169921875,0-0.91845703125-0.190185546875t-0.59375-0.718994140625q0-0.1484375,0.218017578125-0.185546875t0.310791015625-0.037109375q0.30615234375,0,0.45458984375,0.1669921875q0.111328125,0.1298828125,0.245849609375,0.264404296875t0.282958984375,0.134521484375q0.28759765625,0,0.60302734375-0.162353515625t0.579833984375-0.4267578125t0.4453125-0.626220703125t0.180908203125-0.7421875q0-0.32470703125-0.0556640625-0.80712890625t-0.190185546875-0.927734375t-0.37109375-0.77001953125t-0.598388671875-0.32470703125q-0.54736328125,0-0.988037109375,0.5009765625t-0.73291015625,1.2060546875t-0.45458984375,1.4658203125t-0.162353515625,1.27099609375t0.06494140625,1.28955078125t0.134521484375,1.618896484375t0.134521484375,1.618896484375t0.06494140625,1.28955078125q0,0.1298828125-0.106689453125,0.208740234375t-0.255126953125,0.125244140625t-0.301513671875,0.0556640625t-0.227294921875,0.00927734375q-0.25048828125,0-0.524169921875-0.0556640625t-0.375732421875-0.34326171875q-0.1298828125-0.45458984375-0.2412109375-1.294189453125t-0.199462890625-1.85546875t-0.153076171875-2.1337890625t-0.111328125-2.156982421875t-0.069580078125-1.90185546875t-0.023193359375-1.373046875z M209.83308105469,58.33984375q0-0.6494140625,0.060302734375-1.6884765625t0.143798828125-2.14306640625t0.208740234375-2.092041015625t0.273681640625-1.516845703125q0.0556640625-0.23193359375,0.264404296875-0.2783203125t0.422119140625-0.04638671875q0.28759765625,0,0.496337890625,0.10205078125t0.208740234375,0.4453125q0,1.6884765625-0.208740234375,3.381591796875t-0.227294921875,3.381591796875q0.28759765625-0.43603515625,0.7421875-0.654052734375t0.96484375-0.218017578125q0.705078125,0,1.21533203125,0.28759765625t0.82568359375,0.7421875t0.468505859375,1.052978515625t0.153076171875,1.219970703125q0,0.34326171875-0.069580078125,0.858154296875t-0.208740234375,1.08544921875t-0.3525390625,1.1318359375t-0.505615234375,1.006591796875t-0.672607421875,0.718994140625t-0.8349609375,0.273681640625q-0.0927734375,0-0.245849609375-0.02783203125t-0.30615234375-0.08349609375t-0.255126953125-0.143798828125t-0.10205078125-0.218017578125q0-0.1484375,0.180908203125-0.208740234375t0.292236328125-0.060302734375q0.41748046875-0.185546875,0.7421875-0.774658203125t0.542724609375-1.294189453125t0.329345703125-1.396240234375t0.111328125-1.127197265625q0-0.25048828125-0.07421875-0.66796875t-0.227294921875-0.82568359375t-0.41748046875-0.705078125t-0.626220703125-0.296875q-0.43603515625,0-0.69580078125,0.449951171875t-0.408203125,1.04833984375t-0.199462890625,1.23388671875t-0.051025390625,0.997314453125q0,0.23193359375,0.078857421875,0.459228515625t0.180908203125,0.45458984375t0.180908203125,0.4638671875t0.078857421875,0.468505859375q0,0.111328125-0.097412109375,0.185546875t-0.227294921875,0.12060546875t-0.273681640625,0.060302734375t-0.218017578125,0.013916015625q-0.52880859375,0-0.73291015625-0.25048828125t-0.3525390625-0.705078125q-0.32470703125-1.02978515625-0.449951171875-2.092041015625t-0.125244140625-2.129150390625z M217.74359375,61.419921875q0-0.6494140625,0.143798828125-1.53076171875t0.487060546875-1.669921875t0.904541015625-1.340576171875t1.414794921875-0.552001953125q0.7978515625,0,1.19677734375,0.459228515625t0.39892578125,1.238525390625q0,0.51025390625-0.190185546875,1.117919921875t-0.542724609375,1.150390625t-0.8349609375,0.904541015625t-1.076171875,0.36181640625l-0.2412109375-0.0185546875q0,0.25048828125,0.07421875,0.672607421875t0.218017578125,0.839599609375t0.37109375,0.73291015625t0.552001953125,0.3154296875q0.47314453125,0,0.9091796875-0.38037109375t0.82568359375-0.84423828125t0.7236328125-0.84423828125t0.6123046875-0.38037109375q0.1484375,0,0.30615234375,0.04638671875t0.17626953125,0.259765625q0,0.1298828125-0.069580078125,0.21337890625t-0.125244140625,0.185546875q-0.28759765625,0.49169921875-0.626220703125,0.93701171875t-0.765380859375,0.80712890625t-0.932373046875,0.570556640625t-1.117919921875,0.208740234375q-0.7978515625,0-1.32666015625-0.282958984375t-0.853515625-0.7607421875t-0.468505859375-1.10400390625t-0.143798828125-1.312744140625z M219.40423828125,60.71484375l0.259765625,0.23193359375q0.185546875,0.1669921875,0.37109375,0.07421875t0.333984375-0.338623046875t0.273681640625-0.607666015625t0.22265625-0.7421875t0.143798828125-0.7421875t0.04638671875-0.60302734375l0-0.3154296875t-0.02783203125-0.333984375t-0.097412109375-0.264404296875t-0.218017578125-0.134521484375q-0.04638671875-0.00927734375-0.08349609375-0.00927734375q-0.3154296875,0-0.5380859375,0.39892578125q-0.2412109375,0.4453125-0.3896484375,1.080810546875t-0.21337890625,1.303466796875t-0.08349609375,1.001953125z M225.11602050781,55.1484375q0-0.1298828125,0.2783203125-0.22265625t0.630859375-0.153076171875t0.681884765625-0.088134765625t0.449951171875-0.04638671875q0-0.25048828125,0.0185546875-0.505615234375t0.10205078125-0.45458984375t0.264404296875-0.320068359375t0.505615234375-0.12060546875q0.26904296875,0,0.408203125,0.06494140625t0.296875,0.26904296875q0.037109375,0.111328125,0.037109375,0.21337890625l0,0.310791015625t-0.0185546875,0.320068359375q0.34326171875-0.037109375,0.681884765625-0.088134765625t0.681884765625-0.051025390625q0.25048828125,0,0.34326171875,0.00927734375t0.185546875,0.22265625q0.07421875,0.21337890625-0.180908203125,0.32470703125t-0.6123046875,0.1669921875t-0.709716796875,0.08349609375t-0.4267578125,0.02783203125q-0.111328125,1.595703125-0.227294921875,3.16357421875t-0.115966796875,3.18212890625q0,0.7236328125,0.04638671875,1.49365234375t0.259765625,1.45654296875q0.0556640625,0.21337890625,0.185546875,0.39892578125t0.1298828125,0.39892578125q0,0.1298828125-0.10205078125,0.2041015625t-0.245849609375,0.125244140625t-0.28759765625,0.060302734375t-0.236572265625,0.00927734375q-0.58447265625,0-0.890625-0.43603515625t-0.440673828125-1.043701171875t-0.143798828125-1.247802734375t-0.00927734375-1.0390625q0-0.81640625,0.032470703125-1.669921875t0.078857421875-1.6884765625t0.1298828125-1.6328125t0.19482421875-1.484375q-0.32470703125,0.037109375-0.635498046875,0.08349609375t-0.635498046875,0.04638671875q-0.07421875,0-0.199462890625-0.00927734375t-0.236572265625-0.04638671875t-0.190185546875-0.10205078125t-0.078857421875-0.185546875z M231.82975585937,55.1484375q0-0.1298828125,0.2783203125-0.22265625t0.630859375-0.153076171875t0.681884765625-0.088134765625t0.449951171875-0.04638671875q0-0.25048828125,0.0185546875-0.505615234375t0.10205078125-0.45458984375t0.264404296875-0.320068359375t0.505615234375-0.12060546875q0.26904296875,0,0.408203125,0.06494140625t0.296875,0.26904296875q0.037109375,0.111328125,0.037109375,0.21337890625l0,0.310791015625t-0.0185546875,0.320068359375q0.34326171875-0.037109375,0.681884765625-0.088134765625t0.681884765625-0.051025390625q0.25048828125,0,0.34326171875,0.00927734375t0.185546875,0.22265625q0.07421875,0.21337890625-0.180908203125,0.32470703125t-0.6123046875,0.1669921875t-0.709716796875,0.08349609375t-0.4267578125,0.02783203125q-0.111328125,1.595703125-0.227294921875,3.16357421875t-0.115966796875,3.18212890625q0,0.7236328125,0.04638671875,1.49365234375t0.259765625,1.45654296875q0.0556640625,0.21337890625,0.185546875,0.39892578125t0.1298828125,0.39892578125q0,0.1298828125-0.10205078125,0.2041015625t-0.245849609375,0.125244140625t-0.28759765625,0.060302734375t-0.236572265625,0.00927734375q-0.58447265625,0-0.890625-0.43603515625t-0.440673828125-1.043701171875t-0.143798828125-1.247802734375t-0.00927734375-1.0390625q0-0.81640625,0.032470703125-1.669921875t0.078857421875-1.6884765625t0.1298828125-1.6328125t0.19482421875-1.484375q-0.32470703125,0.037109375-0.635498046875,0.08349609375t-0.635498046875,0.04638671875q-0.07421875,0-0.199462890625-0.00927734375t-0.236572265625-0.04638671875t-0.190185546875-0.10205078125t-0.078857421875-0.185546875z M238.92386230469,61.419921875q0-0.6494140625,0.143798828125-1.53076171875t0.487060546875-1.669921875t0.904541015625-1.340576171875t1.414794921875-0.552001953125q0.7978515625,0,1.19677734375,0.459228515625t0.39892578125,1.238525390625q0,0.51025390625-0.190185546875,1.117919921875t-0.542724609375,1.150390625t-0.8349609375,0.904541015625t-1.076171875,0.36181640625l-0.2412109375-0.0185546875q0,0.25048828125,0.07421875,0.672607421875t0.218017578125,0.839599609375t0.37109375,0.73291015625t0.552001953125,0.3154296875q0.47314453125,0,0.9091796875-0.38037109375t0.82568359375-0.84423828125t0.7236328125-0.84423828125t0.6123046875-0.38037109375q0.1484375,0,0.30615234375,0.04638671875t0.17626953125,0.259765625q0,0.1298828125-0.069580078125,0.21337890625t-0.125244140625,0.185546875q-0.28759765625,0.49169921875-0.626220703125,0.93701171875t-0.765380859375,0.80712890625t-0.932373046875,0.570556640625t-1.117919921875,0.208740234375q-0.7978515625,0-1.32666015625-0.282958984375t-0.853515625-0.7607421875t-0.468505859375-1.10400390625t-0.143798828125-1.312744140625z M240.58450683594,60.71484375l0.259765625,0.23193359375q0.185546875,0.1669921875,0.37109375,0.07421875t0.333984375-0.338623046875t0.273681640625-0.607666015625t0.22265625-0.7421875t0.143798828125-0.7421875t0.04638671875-0.60302734375l0-0.3154296875t-0.02783203125-0.333984375t-0.097412109375-0.264404296875t-0.218017578125-0.134521484375q-0.04638671875-0.00927734375-0.08349609375-0.00927734375q-0.3154296875,0-0.5380859375,0.39892578125q-0.2412109375,0.4453125-0.3896484375,1.080810546875t-0.21337890625,1.303466796875t-0.08349609375,1.001953125z M246.67666015625,58.44189453125q0-0.38037109375,0.134521484375-0.64013671875t0.570556640625-0.259765625q0.1669921875,0,0.41748046875,0.051025390625t0.28759765625,0.255126953125q0.0927734375,0.54736328125,0.10205078125,1.1875t0.06494140625,1.2060546875q0.21337890625-0.41748046875,0.54736328125-0.89990234375t0.7607421875-0.890625t0.927734375-0.67724609375t1.0205078125-0.26904296875q0.037109375,0,0.13916015625,0.02783203125t0.190185546875,0.078857421875t0.106689453125,0.115966796875t-0.10205078125,0.12060546875q-0.037109375,0.111328125-0.15771484375,0.134521484375t-0.21337890625,0.023193359375q-0.0556640625,0-0.17626953125-0.04638671875q-0.6865234375,0.36181640625-1.1689453125,0.9833984375t-0.78857421875,1.377685546875t-0.4453125,1.595703125t-0.13916015625,1.637451171875q0,0.39892578125-0.180908203125,0.482421875t-0.579833984375,0.08349609375q-0.21337890625,0-0.449951171875-0.04638671875t-0.329345703125-0.296875q-0.1669921875-0.52880859375-0.273681640625-1.21533203125t-0.162353515625-1.414794921875t-0.078857421875-1.433349609375t-0.023193359375-1.27099609375z"/></svg>
